<svg xmlns="http://www.w3.org/2000/svg" xmlns:xlink="http://www.w3.org/1999/xlink" width="100" height="100" version="1.1" viewBox="0 0 100 100"><title>lock_hover</title><desc>Created with Sketch.</desc><defs><filter id="filter-1" width="200%" height="200%" x="-50%" y="-50%" filterUnits="objectBoundingBox"><feOffset dx="0" dy="0" in="SourceAlpha" result="shadowOffsetOuter1"/><feGaussianBlur in="shadowOffsetOuter1" result="shadowBlurOuter1" stdDeviation="7.5"/><feColorMatrix in="shadowBlurOuter1" result="shadowMatrixOuter1" type="matrix" values="0 0 0 0 1 0 0 0 0 1 0 0 0 0 1 0 0 0 0.7 0"/><feMerge><feMergeNode in="shadowMatrixOuter1"/><feMergeNode in="SourceGraphic"/></feMerge></filter></defs><g id="Page-1" fill="none" fill-rule="evenodd" stroke="none" stroke-width="1"><g id="lock_hover" fill="#FFF" filter="url(#filter-1)"><path id="Fill-1" d="M65.029,42 L62,42 L62,36.524 C62,30.385 56.68,25 50.614,25 L48.958,25 C43.018,25 38,30.277 38,36.524 L38,42 L34.971,42 C31.127,42 28,45.127 28,48.971 L28,69.029 C28,72.873 31.127,76 34.971,76 L65.029,76 C68.873,76 72,72.873 72,69.029 L72,48.971 C72,45.127 68.873,42 65.029,42 L65.029,42 Z M42,36.524 C42,32.445 45.186,29 48.958,29 L50.614,29 C54.48,29 58,32.586 58,36.524 L58,42 L42,42 L42,36.524 L42,36.524 Z M68,69.029 C68,70.667 66.667,72 65.029,72 L34.971,72 C33.333,72 32,70.667 32,69.029 L32,48.971 C32,47.333 33.333,46 34.971,46 L65.029,46 C66.667,46 68,47.333 68,48.971 L68,69.029 L68,69.029 Z"/></g></g></svg>