<svg xmlns="http://www.w3.org/2000/svg" xmlns:xlink="http://www.w3.org/1999/xlink" width="100" height="100" version="1.1" viewBox="0 0 100 100"><title>poweroff_press</title><desc>Created with Sketch.</desc><defs><linearGradient id="linearGradient-1" x1="50%" x2="50%" y1="0%" y2="100%"><stop offset="0%" stop-color="#5EB9F5"/><stop offset="100%" stop-color="#2CA7F8"/></linearGradient><filter id="filter-2" width="200%" height="200%" x="-50%" y="-50%" filterUnits="objectBoundingBox"><feOffset dx="0" dy="12" in="SourceAlpha" result="shadowOffsetOuter1"/><feGaussianBlur in="shadowOffsetOuter1" result="shadowBlurOuter1" stdDeviation="10"/><feColorMatrix in="shadowBlurOuter1" result="shadowMatrixOuter1" type="matrix" values="0 0 0 0 0 0 0 0 0 0 0 0 0 0 0 0 0 0 0.21 0"/><feMerge><feMergeNode in="shadowMatrixOuter1"/><feMergeNode in="SourceGraphic"/></feMerge></filter></defs><g id="Page-1" fill="none" fill-rule="evenodd" stroke="none" stroke-width="1"><g id="poweroff_press" fill="url(#linearGradient-1)" filter="url(#filter-2)"><path id="Fill-4" d="M60.759,27.727 C59.751,27.27 58.567,27.718 58.112,28.723 C57.656,29.729 58.101,30.914 59.107,31.37 C66.972,34.935 72.054,42.812 72.054,51.438 C72.054,63.583 62.172,73.465 50.027,73.465 C37.881,73.465 28,63.583 28,51.438 C28,42.812 33.082,34.935 40.948,31.37 C41.953,30.914 42.399,29.729 41.943,28.723 C41.488,27.718 40.304,27.27 39.295,27.727 C30.004,31.94 24,41.246 24,51.438 C24,65.789 35.676,77.465 50.027,77.465 C64.378,77.465 76.054,65.789 76.054,51.438 C76.054,41.246 70.05,31.94 60.759,27.727 Z M49.928,53 C51.032,53 51.928,52.104 51.928,51 L51.928,24 C51.928,22.896 51.032,22 49.928,22 C48.824,22 47.928,22.896 47.928,24 L47.928,51 C47.928,52.104 48.824,53 49.928,53 Z"/></g></g></svg>